<?xml version="1.0" encoding="utf-8"?>
<!-- Generator: Adobe Illustrator 21.0.0, SVG Export Plug-In . SVG Version: 6.00 Build 0)  -->
<svg version="1.1" id="Layer_1" xmlns="http://www.w3.org/2000/svg" xmlns:xlink="http://www.w3.org/1999/xlink" x="0px" y="0px"
	 viewBox="0 0 160 40" style="enable-background:new 0 0 160 40;" xml:space="preserve">
<g>
	<g>
		<path d="M14.8,35c-1.8,0-3.5-0.2-5-0.7c-1.5-0.5-2.6-1.3-3.5-2.6C5.5,30.5,5,28.7,5,26.5V10.6h7.3v5.2h6.5l-1.6,5.9h-4.9V26
			c0,0.8,0.2,1.5,0.6,2.1c0.4,0.6,1.2,0.9,2.4,0.9h2.9v6H14.8z"/>
		<path d="M23,33.4c-1.3-1.3-1.9-3.2-1.9-5.7v-12h7.3v10.3c0,0.9,0.2,1.7,0.4,2.3c0.3,0.6,0.9,0.9,1.7,0.9c1.6,0,2.3-1.1,2.3-3.3
			V15.7h7.3v19h-6.8v-1.9c-0.6,0.8-1.3,1.4-2.2,1.8c-0.9,0.4-1.8,0.7-3,0.7C25.9,35.4,24.2,34.7,23,33.4z"/>
		<path d="M52.1,33.2v1.6h-6.9V6.9h7.3v10c1.3-1.2,2.9-1.8,4.8-1.8c2.5,0,4.4,0.9,5.8,2.7c1.4,1.8,2.1,4.2,2.1,7.5
			c0,3.2-0.7,5.8-2.1,7.5c-1.4,1.8-3.3,2.7-5.8,2.7C55.2,35.4,53.5,34.7,52.1,33.2z M58,25.2c0-1.5-0.2-2.6-0.8-3.5
			c-0.5-0.8-1.3-1.2-2.2-1.2c-0.9,0-1.7,0.4-2.2,1.2c-0.5,0.8-0.8,2-0.8,3.5c0,3.1,1,4.7,2.9,4.7C57,30,58,28.4,58,25.2z"/>
		<path d="M72.6,34.1c-1.5-0.8-2.7-2-3.5-3.5s-1.2-3.3-1.2-5.3c0-2.1,0.4-3.9,1.2-5.5c0.8-1.5,1.9-2.7,3.4-3.6
			c1.5-0.8,3.2-1.2,5.2-1.2c2,0,3.7,0.4,5.1,1.3c1.4,0.9,2.5,2,3.2,3.4c0.7,1.4,1.1,3,1.1,4.7c0,0.4,0,0.9-0.1,1.2
			c0,0.4-0.2,0.8-0.3,1.3H75.2c0.1,1.2,0.4,2,0.9,2.5c0.5,0.5,1.1,0.8,1.9,0.8c0.5,0,1.1-0.1,1.6-0.4c0.5-0.2,0.9-0.7,1.4-1.4
			l5.6,2.1c-1,1.7-2.2,2.9-3.6,3.6c-1.5,0.8-3.1,1.2-5,1.2C75.9,35.4,74.1,35,72.6,34.1z M75,23.4h5.6c-0.1-1.1-0.4-2-0.9-2.6
			c-0.5-0.6-1.1-0.9-1.9-0.9C76.2,20,75.3,21.1,75,23.4z"/>
	</g>
	<g>
		<path d="M96.6,29.9h12.7v4.8H90.6v-29h6V29.9z"/>
		<path d="M112.3,7.6c0-0.9,0.3-1.6,0.9-2.1c0.6-0.6,1.4-0.8,2.4-0.8c1,0,1.8,0.3,2.4,0.8c0.6,0.6,0.9,1.3,0.9,2.1
			c0,0.9-0.3,1.6-0.9,2.2c-0.6,0.6-1.4,0.8-2.3,0.8c-1,0-1.8-0.3-2.3-0.8C112.6,9.2,112.3,8.5,112.3,7.6z M118.4,34.7h-5.8V13.2h5.8
			V34.7z"/>
		<path d="M134.9,28.8c0-0.7-0.3-1.3-1-1.7c-0.7-0.4-1.8-0.8-3.4-1.1c-5.1-1.1-7.7-3.3-7.7-6.5c0-1.9,0.8-3.5,2.4-4.8
			c1.6-1.3,3.7-1.9,6.2-1.9c2.7,0,4.9,0.6,6.6,1.9c1.6,1.3,2.5,3,2.5,5h-5.8c0-0.8-0.3-1.5-0.8-2c-0.5-0.5-1.4-0.8-2.5-0.8
			c-1,0-1.7,0.2-2.3,0.7c-0.5,0.4-0.8,1-0.8,1.7c0,0.6,0.3,1.2,0.9,1.5c0.6,0.4,1.6,0.7,3.1,1c1.4,0.3,2.6,0.6,3.6,1
			c3,1.1,4.6,3.1,4.6,5.8c0,2-0.8,3.6-2.5,4.8c-1.7,1.2-3.9,1.8-6.5,1.8c-1.8,0-3.4-0.3-4.8-1c-1.4-0.6-2.5-1.5-3.3-2.7
			c-0.8-1.1-1.2-2.3-1.2-3.6h5.5c0.1,1,0.4,1.8,1.1,2.4c0.7,0.5,1.6,0.8,2.8,0.8c1.1,0,1.9-0.2,2.5-0.6
			C134.6,30,134.9,29.5,134.9,28.8z"/>
		<path d="M151.1,7.9v5.3h3.7v4.2h-3.7v10.8c0,0.8,0.2,1.4,0.5,1.7c0.3,0.3,0.9,0.5,1.8,0.5c0.6,0,1.2,0,1.7-0.1v4.4
			c-1.1,0.3-2.3,0.5-3.5,0.5c-4,0-6.1-2-6.2-6.1V17.4h-3.2v-4.2h3.2V7.9H151.1z"/>
	</g>
</g>
</svg>
