<svg xmlns="http://www.w3.org/2000/svg" width="396" height="524" preserveAspectRatio="none"><path d="M222.62 94.269s-35.565 0-52.967 9.197c-12.551 6.631-17.67 10.055-33.434 37.653-15.763 27.59-34.58 81.935-29.32 99.021 5.26 17.079 23.484 33.18 23.484 33.18l25.791 25.629s-25.636 72.598-32.203 108.08c-6.56 35.479 8.817 86.013 24.567 100.24 27.619 24.968 59.962-9.478 74.082-5.533 14.132 3.937 16.994 16.003 52.48 14.688 35.494-1.308 118.27-42.37 118.27-42.37s-38.11 3.937-59.133-26.29c-21.024-30.221-27.59-61.763-32.85-90.675-5.259-28.906-38.939-56.454-38.939-56.454s32.365-24.771 34.988-43.826c2.629-19.055 13.149-26.396 3.951-68.843-9.197-42.448-17.086-66.101-28.912-76.613-11.812-10.511-23.484-7.889-49.851-17.086" fill="#1A1919" class="color-main"/><path d="M269.85 154.37c-9.246-32.386-44.859-35.853-57.818-35.853-12.965 0-48.586 3.467-57.824 35.853-9.254 32.379-19.674 61.291-10.407 74.01 9.239 12.72 21.825 12.72 25.362 23.133 3.537 10.406 5.857 26.6 23.203 28.913 8.345 1.111 18.527 1.146 19.666.886 1.125.26 11.293.225 19.66-.886 17.346-2.313 19.644-18.507 23.203-28.913 3.529-10.413 16.115-10.413 25.361-23.133 9.26-12.719-1.16-41.631-10.406-74.01" fill="#F7F1D6" class="color-light"/><path d="M166.12 249.35c.14.24 2.519 4.02 9.431 7.696 6.91 3.681 18.315 7.251 36.477 7.25 18.155.001 29.556-3.569 36.465-7.25 6.909-3.676 9.288-7.456 9.428-7.696a1.8 1.8 0 0 0-3.08-1.862l.838.507-.831-.519-.007.012.838.507-.831-.519s-.028.045-.095.139c-.501.7-3.026 3.935-9.494 7.032-6.468 3.093-16.907 6.048-33.231 6.049-17.698-.001-28.477-3.469-34.785-6.827-3.156-1.681-5.199-3.336-6.438-4.541a14.525 14.525 0 0 1-1.294-1.416 6.95 6.95 0 0 1-.264-.356l-.049-.072-.005-.008-.836.522.844-.51-.008-.012-.836.522.844-.51a1.8 1.8 0 1 0-3.08 1.863l-.001-.001" fill="#1A1919" class="color-main"/><path d="M210.23 255.46v14.259a1.801 1.801 0 0 0 3.601 0V255.46a1.8 1.8 0 0 0-3.601 0M200.9 253.29v14.267a1.8 1.8 0 0 0 3.601 0V253.29a1.8 1.8 0 0 0-3.601 0M191.58 251.12v14.273a1.8 1.8 0 0 0 3.6 0V251.12a1.8 1.8 0 1 0-3.6 0M182.24 248.95v14.266a1.8 1.8 0 0 0 3.6 0V248.95a1.8 1.8 0 0 0-3.6 0M172.94 246.78v14.267a1.8 1.8 0 0 0 3.6 0V246.78a1.8 1.8 0 0 0-3.6 0M219.55 253.29v14.267a1.8 1.8 0 0 0 3.6 0V253.29a1.8 1.8 0 0 0-3.6 0M228.86 251.12v14.273a1.8 1.8 0 0 0 3.6 0V251.12a1.8 1.8 0 1 0-3.6 0M238.2 248.95v14.266a1.8 1.8 0 0 0 3.6 0V248.95a1.8 1.8 0 0 0-3.6 0M247.52 246.78v14.267a1.8 1.8 0 0 0 3.6 0V246.78a1.8 1.8 0 0 0-3.6 0M195.88 193.14c-3.072 13.057-12.607 25.298-21.185 23.267-8.578-2.012-15.483-18.127-12.403-31.177 3.051-13.05 16.151-23.175 24.729-21.15 8.6 2.025 11.932 16.01 8.859 29.06M223.39 193.14c3.072 13.057 12.586 25.298 21.164 23.267 8.592-2.012 15.496-18.127 12.424-31.177s-16.15-23.175-24.729-21.15c-8.578 2.025-11.939 16.01-8.859 29.06" fill="#1A1919" class="color-main"/><path d="M315.18 457.62c-.73 0-1.504-.084-2.277-.267-106.8-25.376-193.49-96.061-250.62-204.4C19.357 171.58 8.234 98.763 7.769 95.703c-.787-5.386 2.926-10.392 8.297-11.187 5.4-.801 10.406 2.911 11.201 8.297.119.724 11.229 73.027 52.734 151.49 55.174 104.33 135.07 169.54 237.47 193.87 5.287 1.258 8.557 6.581 7.291 11.869-1.076 4.535-5.111 7.579-9.584 7.579" fill="#4D4E4C" class="color-dark"/><path d="M315.18 457.62v-1.8a8.11 8.11 0 0 1-1.864-.219l.003.001c-106.27-25.261-192.49-95.528-249.44-203.49C21.096 171.016 9.998 98.382 9.553 95.432l.002.009a8.045 8.045 0 0 1 1.85-6.417 7.99 7.99 0 0 1 4.929-2.727 8.039 8.039 0 0 1 6.434 1.846 8 8 0 0 1 2.723 4.933l.005.029c.003.021.058.373.156.963 1.494 8.942 13.714 77.248 52.763 151.08 27.681 52.344 61.597 94.931 101.48 127.49 39.878 32.556 85.716 55.068 137.16 67.289a7.985 7.985 0 0 1 4.471 2.875 8.058 8.058 0 0 1 1.707 4.946c0 .618-.072 1.247-.222 1.881a8.008 8.008 0 0 1-2.874 4.487 8.064 8.064 0 0 1-4.959 1.708v3.6c2.646 0 5.161-.9 7.173-2.47a11.601 11.601 0 0 0 4.162-6.494c.215-.904.32-1.814.32-2.712 0-2.638-.901-5.148-2.467-7.159a11.593 11.593 0 0 0-6.478-4.164c-50.95-12.107-96.258-34.363-135.72-66.576-39.46-32.213-73.079-74.395-100.57-126.38-20.678-39.088-33.793-76.666-41.747-104.55-3.977-13.941-6.664-25.458-8.364-33.528A330.16 330.16 0 0 1 29.642 96a194.706 194.706 0 0 1-.593-3.472l-1.776.292 1.78-.263a11.597 11.597 0 0 0-3.944-7.143 11.64 11.64 0 0 0-9.302-2.671 11.593 11.593 0 0 0-7.139 3.95 11.665 11.665 0 0 0-2.675 9.279l.002.008c.485 3.17 11.633 76.168 54.701 157.82 57.312 108.72 144.45 179.82 251.79 205.31h.003c.914.216 1.822.315 2.691.315v-1.8" fill="#1A1919" class="color-main"/><path d="m3.737 111.36 39.424-17.086s3.937 25.629 25.615 17.086c21.683-8.543 0-32.203 0-32.203s48.459-68.99 132.66-68.99c84.186 0 168.94 59.132 168.94 141.92 0 0-24.131-88.699-158.43-88.699s-95.85 88.699-95.85 88.699L25.42 192.848 3.737 111.355" fill="#777776" class="color-accent"/><path d="m3.737 111.36.715 1.652 39.424-17.086-.715-1.652-1.78.274c.024.113.757 4.973 3.45 9.994 1.352 2.508 3.205 5.073 5.784 7.049 2.57 1.977 5.902 3.321 9.916 3.313 2.674 0 5.635-.581 8.904-1.869 3.848-1.514 6.58-3.551 8.328-5.972 1.753-2.418 2.455-5.166 2.449-7.849-.003-2.69-.67-5.338-1.628-7.81-1.441-3.707-3.549-7.036-5.299-9.469-1.751-2.43-3.148-3.956-3.182-3.994l-1.327 1.216 1.473 1.035.028-.041c.671-.945 13.006-18.047 35.403-34.858 22.405-16.818 54.81-33.327 95.754-33.326 41.671-.007 83.553 14.657 114.92 39.526 15.686 12.431 28.745 27.404 37.875 44.349 9.131 16.947 14.342 35.861 14.343 56.25h1.801l1.736-.472c-.056-.198-6.196-22.677-29.335-45.168-11.567-11.242-27.385-22.471-48.76-30.875-21.375-8.405-48.298-13.985-82.069-13.984-21.476.001-38.619 2.253-52.287 6.079-20.493 5.73-33.2 15.057-40.702 25.57-7.508 10.509-9.762 22.084-9.759 32.137.01 15.361 5.197 27.298 5.246 27.429l1.652-.716-.738-1.642-88.743 39.892-21.139-79.445-1.739.463.715 1.652-.715-1.652-1.74.463 21.684 81.492a1.801 1.801 0 0 0 2.477 1.179l90.676-40.76a1.804 1.804 0 0 0 .914-2.358l-.01-.022c-.25-.573-4.948-11.883-4.94-25.975 0-6.353.947-13.262 3.637-20.04 2.019-5.086 5.015-10.103 9.359-14.796 6.516-7.034 16.082-13.358 30.026-17.943 13.939-4.583 32.248-7.408 56.126-7.407 33.377.001 59.831 5.509 80.752 13.734 31.376 12.342 50.34 30.797 61.502 46.158 5.578 7.68 9.197 14.587 11.418 19.556a76.35 76.35 0 0 1 2.349 5.854 46.151 46.151 0 0 1 .637 1.955l.026.093.006.022a1.8 1.8 0 0 0 3.537-.473c.002-21.007-5.382-40.532-14.773-57.958-14.091-26.143-37.168-47.57-64.659-62.474-27.495-14.902-59.421-23.291-91.307-23.293-42.606 0-76.152 17.458-98.995 34.863-22.852 17.413-35.064 34.793-35.136 34.893a1.801 1.801 0 0 0 .146 2.25l.018.021c.237.26 2.579 2.89 4.821 6.522 1.122 1.813 2.217 3.877 3.019 5.995.804 2.119 1.307 4.287 1.305 6.303-.006 2.089-.508 3.99-1.767 5.74-1.263 1.747-3.349 3.397-6.729 4.732-2.927 1.152-5.435 1.618-7.585 1.618-3.225-.008-5.684-1.019-7.728-2.572-3.056-2.323-5.086-6.007-6.283-9.146a32.789 32.789 0 0 1-1.248-3.998 26.21 26.21 0 0 1-.261-1.19c-.027-.138-.045-.242-.057-.309l-.012-.073-.003-.015a1.795 1.795 0 0 0-.908-1.302 1.792 1.792 0 0 0-1.586-.076L3.02 109.709a1.798 1.798 0 0 0-1.024 2.114l1.74-.463" fill="#1A1919" class="color-main"/><path d="M116.1 152.09s-38.447-88.699 95.85-88.699 158.43 88.699 158.43 88.699c0-1.3-.084-2.566-.12-3.853-20.777-62.648-71.275-97.418-158.22-104.77-95.182-8.058-137.33 69.208-137.33 69.208l41.4 39.417" fill="#F7F1D6" class="color-light"/><path d="m116.1 152.09 1.652-.716-.01-.022c-.25-.573-4.948-11.883-4.94-25.975 0-6.353.947-13.262 3.637-20.04 2.019-5.086 5.015-10.103 9.359-14.796 6.516-7.034 16.082-13.358 30.025-17.943 13.94-4.583 32.248-7.408 56.127-7.407 33.377.001 59.831 5.509 80.752 13.734 31.376 12.342 50.34 30.797 61.502 46.158 5.578 7.68 9.197 14.587 11.418 19.556a76.35 76.35 0 0 1 2.349 5.854 46.151 46.151 0 0 1 .637 1.955l.026.093.006.022a1.8 1.8 0 0 0 3.537-.473c0-1.379-.087-2.662-.119-3.902a1.891 1.891 0 0 0-.092-.517c-10.483-31.643-28.577-56.394-55.005-74.052-26.427-17.664-61.099-28.253-104.78-31.948a165.128 165.128 0 0 0-13.914-.595c-21.62-.002-40.278 4.416-56.073 11.046-23.695 9.945-40.942 24.844-52.272 37.253-11.33 12.412-16.755 22.343-16.807 22.436a1.8 1.8 0 0 0 .34 2.166l41.4 39.417a1.794 1.794 0 0 0 2.271.172 1.795 1.795 0 0 0 .622-2.192l-1.652.716 1.241-1.303-41.4-39.417-1.241 1.303 1.58.862.021-.039c.515-.934 10.262-18.201 30.244-35.168 19.995-16.971 50.144-33.647 91.726-33.652 4.407 0 8.943.187 13.61.582 43.273 3.66 77.325 14.133 103.08 31.354 25.752 17.228 43.296 41.186 53.59 72.192l1.708-.567-1.799.049c.037 1.334.119 2.582.118 3.804h1.801l1.736-.472c-.056-.198-6.196-22.677-29.335-45.168-11.567-11.242-27.385-22.471-48.76-30.875-21.375-8.405-48.298-13.985-82.069-13.984-21.476.001-38.62 2.253-52.287 6.079-20.494 5.73-33.201 15.057-40.703 25.57-7.507 10.509-9.761 22.084-9.758 32.137.01 15.362 5.197 27.298 5.246 27.429l1.652-.716 1.241-1.303-1.241 1.303" fill="#1A1919" class="color-main"/><path d="M169.65 357.09s9.984 18.407 5.154 23.66c-4.838 5.252-3.164-3.875-13.205 6.602-10.019 10.484-8.719 15.736-15.293 9.169-6.574-6.581-3.937-12.537-9.189-18.267-5.26-5.731 14.041-26.424 19.504-25.102 5.457 1.308 13.029 3.938 13.029 3.938" fill="#F7F1D6" class="color-light"/><path d="m169.65 357.09-1.583.858.015.028a80.456 80.456 0 0 1 3.29 7.054c.764 1.873 1.512 3.935 2.061 5.929.551 1.991.893 3.92.89 5.458.001.767-.084 1.431-.236 1.951-.153.524-.361.893-.609 1.164l.002-.002c-.569.621-.987.948-1.222 1.084-.245.136-.254.107-.282.114a.718.718 0 0 1-.169-.028c-.156-.036-.437-.138-.842-.258a5.583 5.583 0 0 0-1.561-.234 5.63 5.63 0 0 0-1.802.308c-.955.321-1.965.884-3.143 1.773-1.178.892-2.531 2.118-4.16 3.818l-.001.001c-3.578 3.742-5.773 6.869-7.307 8.946-.761 1.035-1.369 1.799-1.796 2.193a2.017 2.017 0 0 1-.446.339l-.097.032a.603.603 0 0 1-.211-.053c-.202-.075-.57-.281-1.055-.666-.487-.382-1.09-.933-1.808-1.651-1.503-1.508-2.44-2.926-3.122-4.334-1.022-2.108-1.451-4.255-2.13-6.602-.675-2.332-1.668-4.87-3.883-7.274a1.445 1.445 0 0 1-.305-.525 2.67 2.67 0 0 1-.121-.851c-.003-.638.166-1.505.526-2.495.625-1.737 1.814-3.831 3.32-5.931 2.257-3.156 5.224-6.35 7.99-8.692 1.38-1.171 2.714-2.131 3.84-2.764a9.372 9.372 0 0 1 1.487-.696c.415-.147.736-.195.896-.193l.122.011.003.001c2.649.634 5.882 1.609 8.434 2.423 1.277.407 2.385.774 3.173 1.039.394.132.708.239.923.312l.328.113.591-1.7-1.583.858 1.583-.858.59-1.701c-.029-.008-7.599-2.643-13.2-3.987h.002a4.117 4.117 0 0 0-.966-.111c-1.093.009-2.102.347-3.156.836-1.831.869-3.804 2.286-5.827 4.042-3.024 2.635-6.113 6.029-8.503 9.461-1.194 1.719-2.213 3.445-2.953 5.122-.735 1.679-1.214 3.305-1.221 4.91 0 .677.092 1.355.313 2.007a5.05 5.05 0 0 0 1.061 1.802c1.154 1.263 1.85 2.49 2.385 3.805.804 1.962 1.187 4.172 2.012 6.657.824 2.478 2.165 5.19 4.845 7.86 1.04 1.036 1.914 1.825 2.78 2.414a6.61 6.61 0 0 0 1.34.719c.468.18.976.293 1.5.292.6.003 1.195-.155 1.695-.406.882-.447 1.511-1.09 2.145-1.826.942-1.111 1.903-2.52 3.218-4.26a67.377 67.377 0 0 1 5.19-6.13l-.002.001c2.047-2.139 3.555-3.385 4.609-4.047.526-.332.934-.519 1.237-.62.304-.1.499-.121.66-.123.236.002.438.05.823.175.191.06.423.14.712.212s.64.135 1.037.134c.682.008 1.442-.21 2.111-.613.679-.404 1.32-.965 2.041-1.746l.001-.002c.692-.752 1.144-1.655 1.416-2.596.272-.943.377-1.934.378-2.954-.003-2.108-.447-4.368-1.078-6.626-1.904-6.745-5.585-13.497-5.613-13.56a1.816 1.816 0 0 0-.992-.842l-.59 1.701" fill="#1A1919" class="color-main"/><path d="M227.03 392.58s-16.313 17.382-14.998 22.479c1.308 5.105 5.013 2.482 14.998 7.735 9.949 5.252 22.451 13.148 27.373 0 4.935-13.142-16.313-43.685-27.373-30.214" fill="#F7F1D6" class="color-light"/><path d="m227.03 392.58-1.313-1.232c-.019.022-3.81 4.06-7.633 8.864-1.913 2.405-3.832 4.996-5.31 7.418-.739 1.213-1.369 2.382-1.833 3.497-.459 1.12-.777 2.175-.786 3.286.001.356.036.726.137 1.107l-.004-.014c.193.754.446 1.428.795 2.034.303.529.685 1 1.121 1.384.77.679 1.646 1.068 2.532 1.365 1.339.442 2.793.725 4.636 1.282 1.838.555 4.061 1.365 6.819 2.816l-.002-.002c2.933 1.548 6.151 3.366 9.405 4.822 3.257 1.448 6.551 2.57 9.786 2.58 2.189.007 4.386-.561 6.261-1.956 1.878-1.389 3.368-3.519 4.447-6.406.593-1.581.845-3.306.846-5.101-.004-3.209-.801-6.666-2.118-10.096-1.983-5.14-5.144-10.216-8.837-14.103-1.851-1.942-3.836-3.588-5.918-4.777-2.079-1.184-4.275-1.923-6.517-1.926a9.372 9.372 0 0 0-4.221.988c-1.347.672-2.588 1.689-3.685 3.029l1.392 1.141-1.313-1.232 1.313 1.232 1.391 1.142c.829-1.008 1.669-1.67 2.51-2.091a5.757 5.757 0 0 1 2.613-.609c.953 0 1.984.214 3.071.646 1.903.753 3.957 2.186 5.92 4.095 2.949 2.858 5.689 6.766 7.653 10.837 1.972 4.067 3.154 8.308 3.146 11.724 0 1.456-.209 2.755-.617 3.837-.913 2.433-2.033 3.899-3.218 4.777-1.189.873-2.507 1.242-4.119 1.249-2.36.01-5.279-.901-8.317-2.267-3.042-1.359-6.201-3.137-9.193-4.718l-.002-.001c-2.591-1.364-4.802-2.228-6.657-2.827-1.39-.449-2.58-.75-3.556-1.002-.733-.188-1.343-.35-1.819-.511a5.32 5.32 0 0 1-.849-.358c-.319-.181-.488-.331-.671-.581-.179-.251-.371-.647-.541-1.31l-.003-.013a.792.792 0 0 1-.017-.186c-.008-.331.144-1.041.51-1.904.63-1.524 1.837-3.527 3.285-5.594 2.172-3.11 4.882-6.403 7.038-8.902a172.733 172.733 0 0 1 3.476-3.902l.209-.225.069-.074.079-.09-1.391-1.142" fill="#1A1919" class="color-main"/></svg>