<svg xmlns="http://www.w3.org/2000/svg" width="160" height="40" fill="#fff"><path d="M14.8 35c-1.8 0-3.5-.2-5-.7-1.5-.5-2.6-1.3-3.5-2.6-.8-1.2-1.3-3-1.3-5.2V10.6h7.3v5.2h6.5l-1.6 5.9h-4.9V26c0 .8.2 1.5.6 2.1.4.6 1.2.9 2.4.9h2.9v6h-3.4zM23 33.4c-1.3-1.3-1.9-3.2-1.9-5.7v-12h7.3V26c0 .9.2 1.7.4 2.3.3.6.9.9 1.7.9 1.6 0 2.3-1.1 2.3-3.3V15.7h7.3v19h-6.8v-1.9c-.6.8-1.3 1.4-2.2 1.8-.9.4-1.8.7-3 .7-2.2.1-3.9-.6-5.1-1.9zM52.1 33.2v1.6h-6.9V6.9h7.3v10c1.3-1.2 2.9-1.8 4.8-1.8 2.5 0 4.4.9 5.8 2.7 1.4 1.8 2.1 4.2 2.1 7.5 0 3.2-.7 5.8-2.1 7.5-1.4 1.8-3.3 2.7-5.8 2.7-2.1-.1-3.8-.8-5.2-2.3zm5.9-8c0-1.5-.2-2.6-.8-3.5-.5-.8-1.3-1.2-2.2-1.2-.9 0-1.7.4-2.2 1.2-.5.8-.8 2-.8 3.5 0 3.1 1 4.7 2.9 4.7 2.1.1 3.1-1.5 3.1-4.7zM72.6 34.1c-1.5-.8-2.7-2-3.5-3.5s-1.2-3.3-1.2-5.3c0-2.1.4-3.9 1.2-5.5.8-1.5 1.9-2.7 3.4-3.6 1.5-.8 3.2-1.2 5.2-1.2s3.7.4 5.1 1.3c1.4.9 2.5 2 3.2 3.4.7 1.4 1.1 3 1.1 4.7 0 .4 0 .9-.1 1.2 0 .4-.2.8-.3 1.3H75.2c.1 1.2.4 2 .9 2.5s1.1.8 1.9.8c.5 0 1.1-.1 1.6-.4.5-.2.9-.7 1.4-1.4l5.6 2.1c-1 1.7-2.2 2.9-3.6 3.6-1.5.8-3.1 1.2-5 1.2-2.1.1-3.9-.3-5.4-1.2zM75 23.4h5.6c-.1-1.1-.4-2-.9-2.6-.5-.6-1.1-.9-1.9-.9-1.6.1-2.5 1.2-2.8 3.5zM96.6 29.9h12.7v4.8H90.6v-29h6v24.2zM112.3 7.6c0-.9.3-1.6.9-2.1.6-.6 1.4-.8 2.4-.8s1.8.3 2.4.8c.6.6.9 1.3.9 2.1 0 .9-.3 1.6-.9 2.2-.6.6-1.4.8-2.3.8-1 0-1.8-.3-2.3-.8-.8-.6-1.1-1.3-1.1-2.2zm6.1 27.1h-5.8V13.2h5.8v21.5zM134.9 28.8c0-.7-.3-1.3-1-1.7-.7-.4-1.8-.8-3.4-1.1-5.1-1.1-7.7-3.3-7.7-6.5 0-1.9.8-3.5 2.4-4.8 1.6-1.3 3.7-1.9 6.2-1.9 2.7 0 4.9.6 6.6 1.9 1.6 1.3 2.5 3 2.5 5h-5.8c0-.8-.3-1.5-.8-2s-1.4-.8-2.5-.8c-1 0-1.7.2-2.3.7-.5.4-.8 1-.8 1.7 0 .6.3 1.2.9 1.5.6.4 1.6.7 3.1 1 1.4.3 2.6.6 3.6 1 3 1.1 4.6 3.1 4.6 5.8 0 2-.8 3.6-2.5 4.8-1.7 1.2-3.9 1.8-6.5 1.8-1.8 0-3.4-.3-4.8-1-1.4-.6-2.5-1.5-3.3-2.7-.8-1.1-1.2-2.3-1.2-3.6h5.5c.1 1 .4 1.8 1.1 2.4.7.5 1.6.8 2.8.8 1.1 0 1.9-.2 2.5-.6.5-.5.8-1 .8-1.7zM151.1 7.9v5.3h3.7v4.2h-3.7v10.8c0 .8.2 1.4.5 1.7.3.3.9.5 1.8.5.6 0 1.2 0 1.7-.1v4.4c-1.1.3-2.3.5-3.5.5-4 0-6.1-2-6.2-6.1V17.4h-3.2v-4.2h3.2V7.9h5.7z"/></svg>